<svg width="40" height="36" viewBox="0 0 40 36" fill="none" xmlns="http://www.w3.org/2000/svg">
<path id="Union" fill-rule="evenodd" clip-rule="evenodd" d="M20.0244 4.51805C17.4973 1.68832 14.1032 2.59568e-06 11.1392 2.59462e-06C6.07592 2.5928e-06 0.253163 2.85111 -1.23523e-07 11.4044C0.23552 19.8439 9.4544 26.9374 18.2802 33.7285C18.9413 34.2372 19.6003 34.7442 20.2531 35.25C20.2531 35.25 20.2531 35.25 20.2532 35.2499C20.2532 35.25 20.2532 35.25 20.2533 35.25C20.5763 34.9997 20.9002 34.7492 21.2246 34.4982C30.307 27.4724 39.7556 20.1633 40 11.4044C39.7468 2.8511 33.4178 0 28.3545 0C25.3905 0 22.2831 1.68832 20.0244 4.51805Z" fill="#7AC100"/>
</svg>
